<?xml version="1.0" standalone="no"?>
<!DOCTYPE svg PUBLIC "-//W3C//DTD SVG 20010904//EN"
 "http://www.w3.org/TR/2001/REC-SVG-20010904/DTD/svg10.dtd">
<svg version="1.0" xmlns="http://www.w3.org/2000/svg"
 width="352.000000pt" height="352.000000pt" viewBox="0 0 352.000000 352.000000"
 preserveAspectRatio="xMidYMid meet">
<metadata>
Created by potrace 1.16, written by Peter Selinger 2001-2019
</metadata>
<g transform="translate(0.000000,352.000000) scale(0.100000,-0.100000)"
fill="#fff" stroke="none">
<path d="M3049 2998 c-109 -216 -293 -396 -502 -493 -78 -36 -193 -72 -202
-63 -3 3 10 35 30 70 45 82 82 191 100 293 20 118 11 122 -83 34 -99 -93 -211
-159 -347 -206 -118 -40 -237 -53 -506 -53 -278 0 -351 -9 -506 -65 -336 -120
-582 -397 -681 -764 -22 -86 -25 -116 -26 -276 -1 -158 2 -191 23 -269 53
-203 138 -353 281 -497 144 -147 296 -235 489 -286 82 -22 124 -26 291 -30
167 -4 213 -2 319 16 290 49 538 168 765 366 82 72 105 99 94 111 -3 2 -36
-14 -74 -38 -332 -202 -782 -301 -1172 -257 -464 52 -814 436 -815 894 0 238
86 448 251 618 118 122 238 195 399 244 79 24 104 26 243 27 141 0 163 -3 245
-28 404 -124 667 -490 653 -910 -2 -84 -8 -111 -30 -157 -55 -118 -160 -189
-291 -197 -72 -4 -82 -2 -142 27 -37 18 -79 49 -97 71 l-32 38 -49 -44 c-27
-24 -79 -59 -116 -76 -62 -31 -72 -33 -176 -33 -108 0 -113 1 -186 37 -136 67
-224 183 -249 329 -31 180 74 377 244 459 82 39 197 54 366 48 132 -5 165 -15
206 -60 50 -54 54 -75 54 -273 0 -106 5 -206 11 -231 29 -112 164 -159 250
-87 51 43 69 94 69 199 0 190 -69 354 -210 494 -127 127 -245 187 -416 211
-148 21 -282 -3 -433 -77 -220 -108 -373 -341 -388 -589 -8 -123 14 -220 78
-353 43 -89 62 -115 137 -190 181 -182 391 -245 738 -222 350 24 650 133 920
336 334 251 561 615 646 1035 30 150 33 418 5 547 -33 151 -116 362 -143 362
-8 0 -23 -19 -35 -42z"/>
<path d="M1325 1761 c-128 -32 -205 -131 -205 -266 0 -150 97 -253 247 -263
85 -6 151 18 207 74 69 69 77 101 74 294 l-3 165 -145 2 c-80 0 -158 -2 -175
-6z"/>
</g>
</svg>
